<?xml version="1.0" encoding="UTF-8"?>
<svg id="Layer_1" data-name="Layer 1" xmlns="http://www.w3.org/2000/svg" xmlns:xlink="http://www.w3.org/1999/xlink" viewBox="0 0 894.55 1287.27">
  <defs>
    <style>
      .cls-1 {
        fill: none;
      }

      .cls-2 {
        fill: #fbf4e2;
      }

      .cls-3 {
        fill: #feb973;
      }

      .cls-4 {
        fill: #fcf3c8;
      }

      .cls-5 {
        fill: #f6e1a7;
      }

      .cls-6 {
        fill: #fdfbf2;
      }

      .cls-7 {
        clip-path: url(#clippath);
      }

      .cls-8 {
        fill: #f8e6a1;
      }
    </style>
    <clipPath id="clippath">
      <rect class="cls-1" width="894.55" height="1287.27"/>
    </clipPath>
  </defs>
  <g class="cls-7">
    <g>
      <path class="cls-6" d="M311.37,804.71c-.66.05-.81-.45-.11-.5l.11.5Z"/>
      <g>
        <path class="cls-2" d="M370.67,655.25c-.4-.15-1.14-.5-1.55-.38.03-.53.89-1.46.46-2.26-.58-1.08-2.26-.41-3.46-.18-.51.03-.37-1.2-.42-1.72-.04-.49,4.89-3.85,5.39-1.97.14.58-1.18,2.03.36,2.45,1.31-3.96,1.64-8.55-.16-12.54-2.2-.66-1.41,5.01-4.43,5.35l-1.22-5.02c-.52-2.15.6-4.42-.91-6.61-.21-.31.09-.82.28-.9.22-.1.68.02.85.44.25.63.03,1.33.26,1.76.38.73,1.99.45,2.41,1.02l2.4,3.29c-.09-3.61-2.34-6.75-4.31-9.6-.44-.67.89-2.66-.87-3.17l1.49-4.23-.78-9.2.73-10.28,1.09-8.8c.26-2.09.53-3.46-.04-5.67-.04-.14-1.35-11.59-3.63-11.06-.6,1.03-.13,1.85-.09,2.95-2.77,3.55-5.63,7.14-9.48,9.53-1.22.76-12.32,3.73-12.92.22-.27-.58.81-2.14,1.44-2.18l4.19-.25c4.06-.24,7.82-1.43,9.85-4.65,1.55.29,4.71-3.88,4.39-5.55-.3-1.55-.48-3.33-2.24-4.12-12.54-5.66-9.74-7.25-17.07-18.89-.98.71-2.5,1.27-3.48.27-1.58-1.61-2.17-3.54-3.13-5.32-2.33,5.47-4.82,11.01-5.02,16.81-.11,3.09-.93,3.76-3.22,5.37s-4.33,4.04-7.52,4.9c-1.43.39-.55,2.93-.82,3.62-1.4-.34-6.31,3.6-6.36,3.82l-1.13,4.8c-.62,2.61.12,15.56.33,15.92.24.41.85.55,1.55.77-.65.62-1.12.14-1.27.44-.89,1.82,1.04,7.08,1.05,10.63.82-4.04,1.34-7.98,1.86-12.01.37-2.9,2.1-5.55,1.95-8.9,2.11.34,1.75,1.7,1.52,2.97l-1.84,10.18c-.75-.27-1.06.47-1.05.92.02.79-.07,1.78.68,1.96-.47.93-.25,2.67-.27,3.73-.99.09-1.37.8-1.17,1.66.18.78.18,1.88,1.11,1.92-.01.67-.1,1.67-.03,2.35-2.91,3.45.59,5.5,0,10.65-1.81-1.74-.81-3.81-1.96-5.94-2.47,1.52-2.06,4.77-.28,6.59,1.41,1.45.81,3.34,1.09,5.07,1.67,10.32-3.1,7.57,1.4,14.72-1.4.85-1.75,2.42-1.58,3.97.12,1.05-.03,2.14.03,3.19-3.49-2-5.01-6.73-3.88-10.82,2.77-10-3.9-7.77-.96-20.84.8-3.55,2-6.54,1.56-10.4l-1.63-14.06-.44-5.04-.12-5.35c-.06-2.44.98-4.69.99-7.11.02-5.06,5.95-9.88,9.31-11.31,1.86-.79,2.85-1.72,4.28-2.91,6.54-5.43,6.76-13.26,10.29-21.86.95-2.31,4.33-3.61,4.8-5.93.53-2.62.22-5.03,1.36-7.57,1.3-2.91,1.15-6.16,2.27-9.21s-1.27-10.39.74-10.97c2.76,5.56.89,19-1.46,23.96-.6,1.26-1.03,4.34.15,5.22,1.71,1.27,2.29,2.41,3.28,4.04,4.13,6.82,3.71,13.14,9.78,16.85,3.12,1.91,6.21,3.53,9.05,5.77,1.66,1.31,1.91,3.95,2.9,5.74.72,1.31,1.69,2.46,2.04,3.94l1.32,5.51c1.07,4.46-.94,10.67-1,13.1l-.42,17.66c-.16,6.85.56,12.25,2.8,18.86,1.14,3.37,3.16,18.77-1.48,19.91Z"/>
        <path class="cls-6" d="M369.12,654.87c.41-.12,1.15.23,1.55.38-4.67,4.99-3.59,10.83-1.81,17.05.56,1.95.29,4.49.5,6.55.43,4.26.05,8.6-.06,12.79l-.36,13.35c-.15,5.58-1.69,11.08-.7,16.62,1.34,7.45-.83,8.66-.09,13.83,1.73,12.17-2.03,19.28-.08,23.32.91,1.87-.66,2.42-.38,3.94l.71,3.9c.97,5.34-.72,6.36,1.84,10.37-1.78,1.25-.85,2.86-.9,4.43-.05,1.93.84,12.25,1.13,13.23.57,1.89-.29,3.66-.05,5.23.98,6.32-1.42,8.08-.28,19.78.14,1.4.36,1.57-.03,2.98-1.43,5.16-.46,15.44-.7,16.26-.88,3.09-.15,6.28-.22,9.36-.11,5.53-1.52,11.09-.89,15.46l.81,5.69c.36,2.55-.29,5.48-.52,8.22-.35,4.11-5.11,6.22-8.25,8.32-4.99,3.34-10.07,5.24-16.11,4.14-13.11-2.38-10.1-4.04-21.29-7.22-5.74-1.63-.13,1.4-7.45-2.2-3.13-2.97-3.33-8.01-3.08-12.06.1-1.63-1.28-2.69-.6-3.89,1.48.98.86,3.86,2.68,2.68.02.19.07.4.04.59-.23.16-.43.34-.61.55l-.02.55c-.52-.39-.21,3.46-.34,2.95.11.45.56.65.92.36,0,1.89.28,4.78,2.46,5.62s4.02,2.1,6.08,3.22,4.59,1.28,6.64,2.11c1.13,1.82,3.75,2.13,5.72,3.14,5.25,2.72,8.52,1.22,13.53.4,2.25-.37,9.11-2.3,11.6-3.28.67-.26,2.61.48,2.78-.49l.34-1.94c.14-.8,1.44-1.11,1.87-1.74.48-.7-.27-1.56-.21-2.21.3-.86,1.09-1.64,1.03-2.63.37-.13,1.1-.12,1.05-.75-.03-.36-.53-.68-.52-1l.1-4.27c.57-.17.49-.62-.08-.59h-.55c1.43-1.85.85-4.67-.28-6.69-.61-1.09-.22-2.18-.38-3.08-.37-1.06,1.33-2.13,1.23-3.24-.37-3.86.92-7.22.91-11.01l-.15-50.95-.43-21.95-.78-10.07.06-35.68c0-3.26-.36-6.44-.09-9.59l.37-4.21c.24-2.75-1.51-10.96.12-12.44.95-.33.06-1.14-.58-.77-.06-1.09.1-2.23-.44-3.21-.15-.27.04-.71-.08-.99,1.06.15,1.06-.77.66-1.6-.2-.4-.4-1.01-1.02-1.09.08-.54.07-1.34-.03-1.88,1.29-1.04,1.37-2.55,1.24-4.25.01.17.66-11.17.67-10.88-.09-4.38-2.35-11.97-2.01-12.53s.6-5.58-.09-7.36c1.59.42,2.71,1.11,3.91.34Z"/>
        <path class="cls-5" d="M316.67,701.69v1.65s.05,7.63.05,7.63l1.79,18.59c1.06,11.03-2.55,21.05-2.71,28.5-.24,10.85-.23,21.52.05,32.37l.31,12.15.6,22.33.39,16.31c.25,10.41-1.74,24.54-.69,32.55.25,1.95,3.28,1.88,4.34,2.65,2.54,1.86,4.62,2.95,7.69,3.38s5.83,1.76,8.97,1.37,6.36-.96,9.57-.41c1.52.26,3.33.91,4.71-.03,3.19-2.16,6.12-4.64,9.84-5.85,1.64-.53,3.36-1.56,3.07-3.55-.27-1.82.9-2.32,1.67-3.33h.55l.08.59-.1,4.27c-.69.2-.45,1.19-.53,1.75.06.98-.73,1.77-1.03,2.63-6.46,2.84-4.14.35-9.92,4.8-7.29,5.61-6.6.52-15.33,2.04-3.08.54-8.46.02-10.36-.74-2.05-.82-4.58-.98-6.64-2.11s-3.82-2.36-6.08-3.22-2.46-3.72-2.46-5.62c0-1.09.59-2.78-.58-3.31l.02-.55c.29-.03.57-.25.61-.55.03-.18-.03-.4-.04-.59-.43-4.83.55-9.58.46-14.63l-.56-31.94-.15-5.72-.63-12.51c-.07-1.43-.23-2.38-.2-3.46l.21-7.26c.08-2.92.39-5.76-.51-8.38-.05-.16.06-.39.06-.56.59-15.83-.9-22.69,1.95-39.24,1.02-5.95,1.86-11.86.55-17.44-.2-.84.03-1.88-.03-2.75-.11-1.47.33-3.07-.55-4.36.08-.13,0-.39,0-.55.43.1.71-.34.55-.8-.06-.18-.26-.36-.55-.29-.7-.86-.51-1.85,0-2.73l.15-2.71c.15-2.77.82-5.31.19-8.08-.32-1.43.06-2.78,1.27-3.28l-.03.97Z"/>
        <path class="cls-3" d="M337.36,465.08c.26.29.47.41.55.54,1.77,8.73,6.52,19.46,7.2,28.25-.51-.13-.54.56-.57.92-.02.31-.03,1.01.49.92-.02.94-.15,2.1-.06,3.06-1.21-.06-1.43,1.43-1.45,2.41.09,1-.71,1.54-1.28,2.19-2.19.63-4.31,1.64-6.82.77-.67-1.48-1.85-6.35-3.29-6.39,0-1.48-.64-3.25-.44-4.82.38-2.96,1.63-5.51,1.71-8.28.85-.26.53-1.59,1.91-1.19-.98,3.38-.88,13.55,1.62,15.2,1.07.7,3.01,1.32,4.21.05,2.81-2.98-2.78-8.05-3.06-12.94-.17-2.95.29-14.67-.11-14.9-.26-.15-.66-.19-1.01-.2-.02-.76-1.66-6.01.41-5.58Z"/>
        <path class="cls-4" d="M313.41,799.14c-.03,1.08.13,2.03.2,3.46l.63,12.51.15,5.72.56,31.94c.09,5.05-.89,9.81-.46,14.63-1.82,1.18-1.21-1.71-2.68-2.68.08-.14-.05-.39,0-.55.12.16,1.12-.23.9-.52-1.22-1.64.36-3.97-.25-5.16-.9-1.74.24-2.78.08-4.24-.38-3.55-1.52-7.06-.1-10.8.41-1.06,0-1.9-.43-2.86-1.11-2.48.51-5.51-.13-7.79-.87-3.09-.47-5.59-.38-8.69.07-2.34,0-4.62.33-7.17.43-3.29-.58-6.66.6-10.05.27-.78-.52-1.66-1.01-1.75l-.05-.45-.11-.5c-.04-.17.06-.38,0-.55,1.17-.3.89-5.83,2.14-4.52Z"/>
        <path class="cls-5" d="M316.84,694.59c-1.25-1.43-1.13-9.2-.87-11.47-.17,1.47-.29-8.74-.89-6.5v-.55c0-5.92,1.82-14.25.13-16.9l-.07-1.09c-.07-1.05.08-2.14-.03-3.19,1.02.07,1.53-.57,1.8-1.21.39-.93.02-2.02.27-2.73,3.05-4.08.9-12,1.93-17.78,1.85,1.15.33,2.83.74,4.18,1.27,4.16.78,17.68-3.24,20.81.69,3.84,1.01,7.42.9,11.26l-.69,25.16Z"/>
        <path class="cls-6" d="M313.16,782.94c-4.49-3.81,1.53-4.23-.78-11.99-.86-2.9.05-5.9-.26-8.67s-1.67-5.3.56-8.03c1.03-1.26-.35-3.65-.23-5.1.57-7.1-2.34-6.44.79-8.43,3.94-7.84-.24-12,2.41-14.44,1.31,5.58.47,11.49-.55,17.44-2.84,16.55-1.36,23.41-1.95,39.24Z"/>
        <path class="cls-6" d="M311.81,864.18c-1.14.37-.95-7.28-.87-8.2.13-1.68-.65-3.28.24-5.13-.32.66-.52-11.66-.65-12.22-.47-2.05.01-3.68-.03-5.57-.07-2.96-.61-5.61-.03-8.6.35-1.81-1-4.41-.55-6.26,2.54-10.3-.89-2.56,1.5-13.04.49.09,1.28.98,1.01,1.75-1.18,3.39-.17,6.75-.6,10.05-.33,2.55-.26,4.83-.33,7.17-.1,3.1-.49,5.6.38,8.69.64,2.28-.98,5.31.13,7.79.43.96.83,1.8.43,2.86-1.42,3.73-.28,7.25.1,10.8.16,1.46-.98,2.5-.08,4.24.62,1.19-.97,3.52.25,5.16.22.29-.78.67-.9.52Z"/>
        <path class="cls-6" d="M337.36,465.08c-2.07-.44-.43,4.82-.41,5.58.16,7.33-3.39,7.95-3.56,13.99-.08,2.77-1.33,5.31-1.71,8.28-.2,1.57.44,3.34.44,4.82s.32,3.13.68,4.75c.49,2.27,2.92,2.98,4.95,3.38,1.76.35,3.3-1.19,4.49-2.52.57-.64,1.38-1.19,1.28-2.19,1.06-.36,1.56-1.23,1.45-2.41-.09-.95.04-2.11.06-3.06.16-.25.55-.54.55-.92,0-.35-.26-.67-.47-.93-.68-8.79-5.43-19.52-7.2-28.25l5.15,14.63c2.91,8.72,9.23,16.94.73,25.47-1.23.19-3.03,1.41-4.38,1.7-3.65.8-8.05-3.23-8.27-6.75-.76-12.11.21-14.11,3.91-25.43,1.17-3.58.93-7.06.23-10.67-.15-.78,1.23-1.58,1.64-.92.24.38.46.87.45,1.43Z"/>
        <path class="cls-6" d="M316.84,694.59c.86,6.14-.04,2.36-.14,6.13-1.22.5-1.6,1.85-1.27,3.28.62,2.77-.04,5.31-.19,8.08l-.15,2.71c-.14.07-.6-.21-.6-.59l.31-21.53c.09-6.04.29-10.41.29-16.05.6-2.24.72,7.96.89,6.5-.26,2.28-.38,10.05.87,11.47Z"/>
        <path class="cls-6" d="M313.41,799.14c-1.25-1.31-.98,4.22-2.14,4.52-.45-1.25.62-2.87.28-4.15-.58-2.17.45-3.82.56-5.8.14-2.44-.71-4.69.16-7.3.14-.42-.9-1.41-.44-2.03.27-.37.57-.87,1.27-.88.91,2.62.6,5.47.51,8.38l-.21,7.26Z"/>
        <path class="cls-6" d="M315.08,676.08c-1.51.28-1.18-5.05-1.3-4.77,1.35-3.17,1.3-6.54-.83-9.33.98-.14,1.85-.2,2.06-.97.16-.62.14-1.24.21-1.82,1.68,2.65-.13,10.99-.13,16.9Z"/>
        <path class="cls-6" d="M315.63,723.51c-1.47-.37-.7-4.1-.55-4.36.88,1.29.43,2.89.55,4.36Z"/>
        <path class="cls-6" d="M315.08,718.6v-1.09c.28-.08.48.11.55.29.16.46-.11.9-.55.8Z"/>
        <path class="cls-4" d="M369.12,654.87c-1.2.77-2.33.08-3.91-.34.69,1.78.41,6.82.09,7.36-.21,0-.77-.11-1.08.12l.73,9.86c.28,3.83-.81,7.68.13,11.5.53,2.16-.04,4.21.32,6.18.1.54.11,1.34.03,1.88-.14.94-.42,1.94.36,2.69.12.29-.07.73.08.99-.97-1.77-.79,16.66-.71,15.92-.85,8.03-.86,15.8-1.14,23.92l-.24,6.83c-.11,3.21.4,6.23.24,9.45-.19,3.78.22,7.49.43,11.28l.68,12.24.39,30.22.15,37.25c.02,5.56-.92,10.82-.03,16.01.15.9-.23,1.99.38,3.08,1.12,2.02,1.71,4.84.28,6.69-.77,1-1.94,1.5-1.67,3.33.3,1.99-1.43,3.01-3.07,3.55-3.72,1.21-6.65,3.7-9.84,5.85-1.38.94-3.19.29-4.71.03-3.22-.55-6.34,0-9.57.41s-6.02-.96-8.97-1.37-5.16-1.51-7.69-3.38c-1.06-.77-4.08-.7-4.34-2.65-1.05-8.01.94-22.14.69-32.55l-.39-16.31-.6-22.33-.31-12.15c-.28-10.84-.29-21.51-.05-32.37.16-7.45,3.77-17.47,2.71-28.5l-1.79-18.59-.04-7.63c.18-.21.58-.46.56-.82s-.32-.63-.57-.83l.03-.97c.11-3.77,1,0,.14-6.13l.69-25.16c.1-3.84-.21-7.42-.9-11.26,4.02-3.14,4.51-16.65,3.24-20.81-.41-1.35,1.11-3.03-.74-4.18-1.03,5.78,1.12,13.7-1.93,17.78l-.5-.02c-4.5-7.15.27-4.4-1.4-14.72-.28-1.74.32-3.62-1.09-5.07-1.77-1.83-2.19-5.07.28-6.59,1.15,2.13.15,4.2,1.96,5.94.58-5.15-2.92-7.2,0-10.65.36,3.53,1.35,6.95,1.91,10.44.15.93-.38,2,.4,3.05,1.73-1.07.26-2.31.14-3.05,0-2.6-.25-6.26.11-9.27.58-4.81.23-9.35.15-14.07-.05-3.14,1.23-6.1.63-9.46-.18-1,.37-3.38,1.34-3.51,2.39-1.16,1.58,13.71,1.49,14.51-.96,8.96-2.91,18.57-.13,26.95.6,1.83,2.1,3.16,3.69,2.9s3.62-.86,3.93-2.75c.9-5.47.7-10.93.42-16.41l-.47-9.19c-1.47,5.19-1.16,10.15-2.9,15.08-.22.63-1.31-.53-1.86-.79-1.76,3.16,2.7,6.79,1.65,8.95-.25.53-1.81.67-2.39.16-1.97-1.74-1.47-4.47-1.99-6.81-.87-3.89-.55-7.75,2.4-10.95.76-.06.93,1.39,1.34,2.15,1.16-5.95,1.73-12.07-.18-18.15-.89-2.82-1.05-5.88.66-8.5-2.87-2.12-3.79-4.48-5-4.93-1.44-.53-2.1.6-3.05,1.24-2.21,1.48-2.64,3.14-3.22,5.63-.52,2.23-1.18,9.12.05,9.98-.52,4.03-1.04,7.97-1.86,12.01-.02-3.55-1.94-8.81-1.05-10.63.15-.3.62.17,1.27-.44-.69-.22-1.31-.36-1.55-.77-.21-.36-.95-13.31-.33-15.92l1.13-4.8c.05-.22,4.96-4.16,6.36-3.82.27-.69-.62-3.23.82-3.62,3.19-.86,5.12-3.22,7.52-4.9s3.11-2.28,3.22-5.37c.21-5.81,2.7-11.34,5.02-16.81.96,1.78,1.55,3.71,3.13,5.32.98.99,2.5.44,3.48-.27,7.32,11.64,4.53,13.23,17.07,18.89,1.77.8,1.95,2.58,2.24,4.12.32,1.67-2.84,5.84-4.39,5.55-2.03,3.22-5.79,4.41-9.85,4.65l-4.19.25c-.63.04-1.71,1.6-1.44,2.18.6,3.51,11.7.54,12.92-.22,3.85-2.38,6.71-5.97,9.48-9.53-.04-1.09-.5-1.92.09-2.95,2.28-.53,3.59,10.93,3.63,11.06.57,2.21.3,3.58.04,5.67l-1.09,8.8-.73,10.28.78,9.2-1.49,4.23c1.76.51.43,2.5.87,3.17,1.97,2.85,4.23,5.99,4.31,9.6l-2.4-3.29c-.42-.57-2.02-.29-2.41-1.02-.23-.44,0-1.14-.26-1.76-.17-.42-.63-.54-.85-.44-.19.09-.49.59-.28.9,1.51,2.19.39,4.46.91,6.61l1.22,5.02c3.02-.34,2.23-6.01,4.43-5.35,1.8,3.99,1.47,8.58.16,12.54-1.54-.43-.22-1.87-.36-2.45-.49-1.87-5.43,1.49-5.39,1.97.04.52-.1,1.75.42,1.72,1.2-.22,2.88-.9,3.46.18.43.8-.43,1.73-.46,2.26ZM341.16,579.58c3.22,1.16,5.67,1.32,8.72.28-4.52-9.33-3.82-5.2-10.18-12.32-1.1-1.23-2.72-.85-4.06-.15-4.31,2.24-12.4,9.49-9.35,14.31.94,1.49,10.12,3.9,12.89,1.76.75-1.2,1.02-2.78,1.98-3.87ZM358.18,611.14c-1.38-.32-.85-1.77-1.19-2.67.33.16.51.45.83,1.3,1.09-1.17.13-2.12-.3-3.39-.59-1.75-2.63-11.89-4.86-9.94-1.09-1.29-2.91-2.92-4.17-3.99-1.81.05-5.5-.86-7.53-.45-1.55.32-2.73,1.63-4.52.75-1.51-.74-3.3-1.25-4.98-.62,2.8,4.99,8.72-.19,6.86,2.97-1.09,1.86-4.91.87-5.68.47-1.07-.55-1.74-2.81-3.27-2.51-3.74.72-.64,9.96.43,12.37,1.11-2.64-.83-8.89,1.43-9.52,1.89-.53,1.25,2.67,5.63,3.43,3.62.63,4.42-4.05,7.91-4.12,1.77-.04,2.96,1.1,4.12,2.32,2.93,3.06,3.83,6.31,4.01,10.45l.56,12.38c.14,3.15,1.94,6.05,1.98,9.34l.16,13.11-1.98,22.73c-.61,6.98-.08,9.5-.53,15.68l-1.33,18.27c-.39,5.36-.67,10.56-1.84,15.8-.86,3.84-.41,6.99,1.9,10.23,1.06,1.49,4.33,4.4,6.21,2.25,2.33-2.67,3.12-7.29,3.87-10.63,1.05-4.73-.35-8.11-2.46-11.87-1.58-2.81-1.22-6.44-2.22-9.55-4.93,13.51,5.35,17.74.98,28.33-.7,1.7-3.76,3.54-5.11,2.02-2.99-3.36,6.85-3.11,3.22-11.23-2.32-5.19-3.14-10.49-2.26-16.08l1.26-8c.32-2.01-.03-3.44,1.88-4.74,6.44-4.37,2.89-12.75,1.24-17.79-.49-1.49-.43-3.01-1.66-4.04.57-.48,1.05-.49,1.41-.34,1.13.46,4.64,11.83,4.81,16.13s-2.73,7.39-5.41,10.94c5.69,1.2,5.85-7.68,6.08-11.03.21-2.95.75-5.76-.15-8.68-.83-2.73-2.3-18.12-1.31-21.26.83-.1,1.25.62,1.9,1.19.47-.46.54-.89.15-1.22-.26-.23-1.04-.46-1.16-1.12s.72-1.13.78-1.51c.29-1.8-4.1-3.79-3.66-9.36.13-1.6-.54-2.78-1.16-4.04-1.11-2.27.23-4.74.08-6.81,2.05-.37.52,5.08,1.61,6.34,2.9-1.25-1.48-7.62,2.34-13.24-4.15.77-1.25-7.41-.86-10.25,0-.03,2.89-22.86.67-20.39-1.16,3.45-1.1,7.09-2.01,10.73l-2.75,10.9ZM330.04,608.46c.48-1.29.53-1.91-.1-2.22-.23.97-.33,1.64.1,2.22Z"/>
        <path class="cls-8" d="M318.9,630.28h-.55c-.56-3.49-1.55-6.91-1.91-10.44-.07-.68.02-1.68.03-2.35l.06-3.58c.02-1.06-.2-2.8.27-3.73.52-1.04.18-1.82.37-2.88l1.84-10.18c.23-1.27.59-2.63-1.52-2.97.14,3.34-1.58,5.99-1.95,8.9-1.23-.86-.57-7.75-.05-9.98.58-2.49,1.02-4.15,3.22-5.63.96-.64,1.62-1.77,3.05-1.24,1.21.45,2.13,2.81,5,4.93-1.71,2.61-1.54,5.67-.66,8.5,1.91,6.08,1.35,12.2.18,18.15-.41-.76-.57-2.21-1.34-2.15-2.94,3.2-3.27,7.06-2.4,10.95.52,2.35.02,5.08,1.99,6.81.58.51,2.14.36,2.39-.16,1.05-2.16-3.41-5.79-1.65-8.95.55.27,1.63,1.43,1.86.79,1.75-4.92,1.43-9.88,2.9-15.08l.47,9.19c.28,5.48.49,10.94-.42,16.41-.31,1.89-2.35,2.49-3.93,2.75s-3.08-1.07-3.69-2.9c-2.77-8.37-.82-17.99.13-26.95.09-.8.89-15.67-1.49-14.51-.96.13-1.51,2.51-1.34,3.51.6,3.36-.68,6.31-.63,9.46.07,4.72.42,9.25-.15,14.07-.36,3.01-.11,6.66-.11,9.27Z"/>
        <path class="cls-8" d="M317.19,650.96c-.25.71.12,1.81-.27,2.73-.27.64-.79,1.28-1.8,1.21-.17-1.55.18-3.12,1.58-3.97l.5.02Z"/>
        <path class="cls-4" d="M316.53,613.91l-.06,3.58c-.93-.04-.93-1.14-1.11-1.92-.2-.86.18-1.57,1.17-1.66Z"/>
        <path class="cls-4" d="M317.17,607.3c-.19,1.06.15,1.84-.37,2.88-.75-.18-.65-1.17-.68-1.96-.01-.44.31-1.18,1.05-.92Z"/>
        <path class="cls-5" d="M366.32,698.32c.02.29.19.91.58.77-1.63,1.49.12,9.69-.12,12.44l-.37,4.21c-.27,3.14.09,6.33.09,9.59l-.06,35.68.78,10.07.43,21.95.15,50.95c.01,3.79-1.28,7.15-.91,11.01.11,1.11-1.6,2.18-1.23,3.24-.89-5.19.05-10.46.03-16.01l-.15-37.25-.39-30.22-.68-12.24c-.21-3.79-.62-7.5-.43-11.28.16-3.22-.35-6.24-.24-9.45l.24-6.83c.28-8.13.29-15.9,1.14-23.92-.08.74-.26-17.69.71-15.92.54.98.38,2.12.44,3.21Z"/>
        <path class="cls-2" d="M365.28,877.23c-.06.64.69,1.51.21,2.21-.44.63-1.73.94-1.87,1.74l-.34,1.94c-.17.97-2.11.22-2.78.49-2.49.98-9.34,2.91-11.6,3.28-5,.82-8.28,2.31-13.53-.4-1.96-1.01-4.58-1.32-5.72-3.14,1.9.76,7.29,1.27,10.36.74,8.73-1.52,8.04,3.57,15.33-2.04,5.78-4.45,3.46-1.96,9.92-4.8Z"/>
        <path class="cls-5" d="M365.3,661.89c-.34.57,1.92,8.16,2.01,12.53,0-.29-.65,11.04-.67,10.88.14,1.7.05,3.21-1.24,4.25-.37-1.97.21-4.01-.32-6.18-.94-3.82.15-7.67-.13-11.5l-.73-9.86c.3-.23.86-.12,1.08-.12Z"/>
        <path class="cls-5" d="M365.8,694.12c-.78-.75-.5-1.75-.36-2.69.62.08.82.69,1.02,1.09.4.83.4,1.74-.66,1.6Z"/>
        <path class="cls-4" d="M314.48,872.39c-.36.29-.81.09-.92-.36.12.51-.18-3.34.34-2.95,1.17.53.58,2.21.58,3.31Z"/>
        <path class="cls-2" d="M366.32,874.61c.08-.56-.16-1.55.53-1.75,0,.32.49.64.52,1,.06.63-.68.63-1.05.75Z"/>
        <path class="cls-4" d="M366.9,699.09c-.39.15-.57-.48-.58-.77.64-.37,1.53.43.58.77Z"/>
        <path class="cls-4" d="M313.92,868.54c.18-.21.39-.39.61-.55-.04.3-.33.52-.61.55Z"/>
        <path class="cls-4" d="M366.95,868.59l-.08-.59c.57-.03.65.42.08.59Z"/>
        <path class="cls-6" d="M316.68,703.34v-1.65c.23.21.53.47.56.83s-.38.6-.56.82Z"/>
        <path class="cls-5" d="M333.38,484.65c.17-6.04,3.73-6.66,3.56-13.99.35.01.75.05,1.01.2.4.23-.06,11.95.11,14.9.28,4.9,5.88,9.97,3.06,12.94-1.2,1.27-3.14.65-4.21-.05-2.5-1.65-2.6-11.82-1.62-15.2-1.38-.39-1.06.93-1.91,1.19Z"/>
        <path class="cls-5" d="M342.23,503.36c-1.19,1.33-2.73,2.87-4.49,2.52-2.03-.4-4.46-1.11-4.95-3.38-.35-1.63-.68-3.3-.68-4.75,1.44.04,2.62,4.91,3.29,6.39,2.51.87,4.63-.15,6.82-.77Z"/>
        <path class="cls-5" d="M344.96,498.76c.11,1.18-.39,2.05-1.45,2.41.02-.98.23-2.48,1.45-2.41Z"/>
        <path class="cls-5" d="M345.02,495.71c-.52.09-.51-.61-.49-.92.02-.36.06-1.05.57-.92.21.26.47.57.47.93,0,.38-.4.66-.55.92Z"/>
        <path class="cls-8" d="M352.67,596.44c1.26,2.65,2.32,5.5,2.91,8.58.26,1.39,1.02,2.39,1.42,3.45.34.9-.2,2.35,1.19,2.67-1.3,5.15.61,10.63.99,15.92.15,2.06-1.19,4.54-.08,6.81.62,1.26,1.28,2.43,1.16,4.04-.44,5.58,3.95,7.57,3.66,9.36-.06.38-.9.87-.78,1.51s.9.89,1.16,1.12c.39.34.32.76-.15,1.22-.65-.57-1.06-1.29-1.9-1.19-.99,3.14.48,18.54,1.31,21.26.9,2.93.35,5.73.15,8.68-.23,3.35-.39,12.23-6.08,11.03,2.67-3.56,5.57-6.74,5.41-10.94s-3.68-15.67-4.81-16.13c-.36-.15-.84-.14-1.41.34,1.23,1.03,1.17,2.55,1.66,4.04,1.65,5.04,5.2,13.42-1.24,17.79-1.91,1.3-1.57,2.73-1.88,4.74l-1.26,8c-.88,5.58-.06,10.89,2.26,16.08,3.63,8.12-6.2,7.87-3.22,11.23,1.35,1.52,4.41-.32,5.11-2.02,4.37-10.6-5.91-14.82-.98-28.33,1,3.12.65,6.74,2.22,9.55,2.11,3.76,3.51,7.15,2.46,11.87-.75,3.35-1.54,7.96-3.87,10.63-1.88,2.15-5.15-.75-6.21-2.25-2.3-3.23-2.75-6.38-1.9-10.23,1.17-5.25,1.45-10.44,1.84-15.8l1.33-18.27c.45-6.18-.08-8.7.53-15.68l1.98-22.73-.16-13.11c-.04-3.29-1.84-6.19-1.98-9.34l-.56-12.38c-.19-4.14-1.08-7.4-4.01-10.45-1.17-1.22-2.36-2.36-4.12-2.32-3.5.08-4.3,4.75-7.91,4.12-4.38-.76-3.74-3.95-5.63-3.43-2.25.63-.32,6.88-1.43,9.52-1.07-2.41-4.18-11.65-.43-12.37,1.53-.3,2.2,1.96,3.27,2.51.77.4,4.58,1.39,5.68-.47,1.86-3.16-4.06,2.02-6.86-2.97,1.68-.63,3.47-.12,4.98.62,1.79.88,2.97-.43,4.52-.75,2.02-.41,5.72.5,7.53.45,1.26,1.07,3.07,2.71,4.17,3.99Z"/>
        <path class="cls-2" d="M341.16,579.58c-.96,1.09-1.23,2.67-1.98,3.87-2.76,2.14-11.94-.27-12.89-1.76-3.05-4.81,5.04-12.07,9.35-14.31,1.33-.69,2.96-1.07,4.06.15,6.36,7.12,5.66,2.99,10.18,12.32-3.05,1.04-5.5.89-8.72-.28Z"/>
        <path class="cls-2" d="M359.18,627.06c-.39-5.29-2.29-10.78-.99-15.92l2.75-10.9c.92-3.63.85-7.28,2.01-10.73,2.21-2.46-.67,20.36-.67,20.39-.39,2.84-3.29,11.02.86,10.25-3.81,5.62.57,11.99-2.34,13.24-1.1-1.26.44-6.71-1.61-6.34Z"/>
        <path class="cls-2" d="M356.99,608.47c-.4-1.06-1.16-2.06-1.42-3.45-.59-3.09-1.65-5.93-2.91-8.58,2.23-1.94,4.28,8.2,4.86,9.94.43,1.27,1.39,2.23.3,3.39-.33-.86-.51-1.14-.83-1.3Z"/>
        <path class="cls-5" d="M318.35,630.28h.55c.11.73,1.59,1.98-.14,3.05-.78-1.05-.25-2.11-.4-3.05Z"/>
        <path class="cls-8" d="M330.04,608.46c-.43-.57-.33-1.24-.1-2.22.63.31.58.93.1,2.22Z"/>
      </g>
    </g>
  </g>
</svg>